<svg height="512pt" viewBox="0 0 512 512" width="512pt" xmlns="http://www.w3.org/2000/svg"  style="fill:#029645;"><path d="m489.429688 0h-466.859376c-12.445312 0-22.570312 10.125-22.570312 22.570312v331.859376c0 12.445312 10.125 22.570312 22.570312 22.570312h80.582032c-.003906.003906-.007813.007812-.011719.015625-36.59375.722656-66.140625 30.71875-66.140625 67.484375v60c0 4.140625 3.355469 7.5 7.5 7.5h179.832031c4.144531 0 7.5-3.359375 7.5-7.5s-3.355469-7.5-7.5-7.5h-172.332031v-52.5c0-28.949219 23.550781-52.5 52.5-52.5h.554688l26.253906 26.566406c1.84375 1.863282 4.300781 2.804688 6.761718 2.804688 2.195313 0 4.394532-.75 6.167969-2.265625l30.261719-25.878907 30.265625 25.882813c1.773437 1.515625 3.972656 2.261719 6.164063 2.261719 2.464843 0 4.921874-.941406 6.761718-2.808594l26.253906-26.5625h.554688c28.949219 0 52.5 23.550781 52.5 52.5v1.4375l-23.472656 51.0625h-17.527344c-4.144531 0-7.5 3.359375-7.5 7.5s3.355469 7.5 7.5 7.5h121.496094c2.9375 0 5.601562-1.714844 6.820312-4.386719l15.019532-32.898437c5.824218-12.757813 6.328124-27.019532 1.425781-40.15625-2.121094-5.691406-5.152344-10.878906-8.941407-15.402344l21.441407-42.15625h76.167969c12.445312 0 22.570312-10.125 22.570312-22.570312v-331.859376c0-12.445312-10.125-22.570312-22.570312-22.570312zm-155.429688 186.210938c0 31.472656-4.796875 57.503906-14.261719 77.375-9.148437 19.214843-20.8125 28.523437-28.980469 32.949218-13.148437 7.121094-26.828124 6.128906-29.003906 2.382813-1.914062-4.085938-2.183594-9.476563-2.246094-13.992188-.179687-12.875 2.039063-31.328125 4.003907-51.855469 4.480469-46.792968-24.917969-90.367187-69.902344-103.605468-25.660156-7.550782-43.585937-18.46875-53.273437-32.453125-2.636719-3.808594-7.148438-5.878907-11.785157-5.402344-4.660156.480469-8.6875 3.449219-10.507812 7.75-3.777344 8.910156-10.171875 21.542969-19.207031 31.128906-19.53125 20.734375-29.222657 48.761719-26.578126 76.898438.554688 5.902343 1.046876 11.679687 1.46875 17.171875.316407 4.128906 3.917969 7.230468 8.050782 6.902344 4.128906-.316407 7.222656-3.921876 6.90625-8.050782-.429688-5.574218-.929688-11.4375-1.492188-17.425781-2.238281-23.84375 5.984375-47.613281 22.5625-65.210937 9.386719-9.960938 16.1875-22.386719 20.570313-32.074219 12.007812 15.332031 31.847656 27.148437 59.046875 35.152343 38.105468 11.214844 63.007812 48.132813 59.210937 87.789063-2.816406 29.445313-6.21875 54.289063-2.273437 68.667969-45.199219 45.382812-120.925782 38.117187-156.398438-15.699219.628906-7.375.851563-16.769531.535156-28.808594-.109374-4.140625-3.546874-7.367187-7.695312-7.296875-4.140625.109375-7.410156 3.554688-7.300781 7.695313.355469 13.457031-.019531 22.757812-.664063 29.164062-.035156.230469-.058594.464844-.074218.699219-1.019532 9.523438-2.628907 12.324219-3.132813 12.988281-2.414063 1.199219-6.9375.3125-11.925781-2.359375-21.140625-11.328125-44.566406-48.371094-44.652344-91.359375.019531-.109375-1.035156-39.976562 28.75-93.703125.214844-.324218.40625-.667968.570312-1.027344 11.996094-21.410156 27.097657-41.261718 44.207032-55.574218 18.335937-15.335938 39.9375-25.25 63.222656-19.847656 2.695312.625 5.507812-.28125 7.332031-2.359376.15625-.175781 16.027344-17.820312 49.472657-17.820312 55.101562 0 125.445312 96.007812 125.445312 171.210938zm119.726562 78.148437c-15.867187 31.199219-56.621093 111.328125-73.511718 144.539063-4.199219-2.71875-8.820313-4.863282-13.636719-6.300782 14.425781-28.355468 56.65625-111.375 73.777344-145.035156 1.875-3.683594 6.378906-5.175781 10.085937-3.289062 3.664063 1.867187 5.195313 6.328124 3.285156 10.085937zm13.273438 6.988281v60.652344h-30.847656zm-96.601562 90.652344h-142.648438l-14.941406-12.308594c-.191406-.15625-.386719-.304687-.589844-.449218v-2.242188h165.8125zm-195.898438 11.316406-22.71875-20.472656v-9.878906c7.402344 1.457031 15.003906 2.207031 22.71875 2.207031 7.679688 0 15.289062-.769531 22.71875-2.257813v9.929688zm-129.5-68.253906c2.507812 1.867188 5.039062 3.496094 7.566406 4.851562 10.21875 5.472657 19.78125 6.144532 26.929688 1.894532 2.304687-1.371094 4.523437-3.480469 6.363281-7.652344 9.335937 10.988281 21.074219 20.667969 34.765625 27.84375h-75.625zm0-223.871094v-36.191406h32.164062c-11.839843 10.203125-22.636718 22.613281-32.164062 36.191406zm-22.429688-66.191406h134.605469c-2.5625 1.769531-4.59375 3.417969-6.101562 4.75-17.292969-2.96875-35.152344.539062-52.667969 10.25h-56.90625c-6.339844 0-11.5 5.160156-11.5 11.5v63.867188c-5.761719 10.503906-10.789062 21.316406-15 32.046874v-114.84375c0-4.175781 3.394531-7.570312 7.570312-7.570312zm-7.570312 339.429688v-86.875c1.121094 2.234374 2.304688 4.425781 3.546875 6.578124 3.449219 5.972657 7.320313 11.523438 11.453125 16.480469v44.886719c0 6.339844 5.160156 11.5 11.5 11.5h95.28125v2.242188c-.203125.144531-.398438.292968-.589844.449218l-14.941406 12.308594h-98.679688c-4.175781 0-7.570312-3.394531-7.570312-7.570312zm123.378906 49.949218-20.1875-20.425781 10.503906-8.652344c.007813-.007812.019532-.015625.03125-.027343l13.34375-10.992188 21.03125 18.953125zm72.242188 0-24.722656-21.140625 21.03125-18.957031 13.34375 10.996094c.011718.007812.019531.015625.03125.023437l10.503906 8.652344zm35.238281-27.363281c-.003906-.007813-.007813-.011719-.011719-.015625h116.921875l-11.914062 23.421875c-16.644531.253906-32.617188 8.445313-42.386719 22.511719-8.878906-26.269532-33.515625-45.339844-62.609375-45.917969zm139.828125 91.46875-13.011719 28.515625h-82.640625c4.566406-9.929688 17.566406-38.207031 27.429688-59.660156 8.585937-18.808594 30.875-27.128906 49.683594-18.542969 18.8125 8.589844 27.128906 30.878906 18.539062 49.6875zm111.3125-114.054687c0 4.175781-3.394531 7.570312-7.570312 7.570312h-68.535157l7.628907-15h41.976562c6.339844 0 11.5-5.160156 11.5-11.5v-294c0-6.339844-5.160156-11.5-11.5-11.5h-54.5c-4.144531 0-7.5 3.359375-7.5 7.5s3.355469 7.5 7.5 7.5h51v205.527344c-2.121094-4.0625-5.484375-7.449219-9.757812-9.621094-11.050782-5.632812-24.597657-1.253906-30.257813 9.855469l-41.324219 81.238281h-157.464844c9.726563-5.0625 18.757813-11.503906 26.777344-19.179688 4.140625 2.484376 9.921875 4.046876 16.691406 4.046876 7.773438 0 16.851563-2.058594 26.238282-7.144532 19.082031-10.335937 51.097656-40.125 51.097656-123.511718 0-38.445313-16.863281-84.398438-45.113281-122.929688-4.808594-6.558594-9.753907-12.660156-14.804688-18.28125h94.917969c4.144531 0 7.5-3.359375 7.5-7.5s-3.355469-7.5-7.5-7.5h-109.894531c-6.488281-5.800781-13.074219-10.820312-19.683594-15h235.007813c4.175781 0 7.570312 3.394531 7.570312 7.570312zm0 0"/></svg>